:FULLY-SPECIFIED
:FORCE-ALL-JOINTS-BE-3DOF
:DEGREES
99
root 5.02352 17.2765 -3.4708 3.35885 1.08401 3.92393
lfemur 9.17943 -0.390938 -27.5658
ltibia 15.358 0 0
lfoot 2.58675 3.81833 -0.613802
ltoes -10.2779 0 0
rfemur -39.5557 1.01063 16.5806
rtibia 63.3942 0 0
rfoot -6.46805 -8.20811 0.223188
rtoes -5.52008 0 0
lowerback 3.85974 -3.216 -4.86799
upperback -0.251761 -4.5808 0.652466
thorax -1.98923 -2.15726 3.93637
lowerneck -13.2801 -1.12417 -7.35565
upperneck 7.26617 -0.811395 5.92665
head 4.85602 -0.32722 2.85151
lclavicle -6.46065e-15 -4.37326e-15 2.36901e-31
lhumerus -17.275 -19.1564 86.8776
lradius 77.8252 0 0
lwrist 20.2166 0 0
lhand -26.7735 -10.4391 -1.53491
lfingers 7.12502 0 0
lthumb -0.2011 19.225 -1.48023
rclavicle -6.46065e-15 -4.37326e-15 2.36901e-31
rhumerus -53.9019 8.72269 -85.1659
rradius 59.5394 0 0
rwrist -12.131 0 0
rhand -37.6595 5.3755 -1.67483
rfingers 7.12502 0 0
rthumb -10.7058 -24.2265 -1.63496
100
root 5.03013 17.3106 -3.1128 3.48715 1.03709 3.99504
lfemur 11.435 -0.473802 -27.5891
ltibia 12.2296 0 0
lfoot 5.77185 4.90231 -0.356067
ltoes -6.9212 0 0
rfemur -39.8713 1.76625 16.2025
rtibia 60.6024 0 0
rfoot -6.76996 -7.57326 0.240035
rtoes -5.49219 0 0
lowerback 3.50411 -3.28623 -4.88084
upperback -0.363317 -4.64983 0.751197
thorax -1.89513 -2.1981 4.02425
lowerneck -13.399 -1.01091 -7.42464
upperneck 7.68867 -0.642027 5.80607
head 5.0069 -0.250598 2.84321
lclavicle 1.00177e-14 -6.95745e-15 -1.76621e-31
lhumerus -17.6085 -19.7959 87.0651
lradius 78.4129 0 0
lwrist 20.4059 0 0
lhand -26.6229 -10.3565 -1.5041
lfingers 7.12502 0 0
lthumb -0.0559 19.3241 -1.4514
rclavicle 1.00177e-14 -6.95745e-15 -1.76621e-31
rhumerus -54.1477 8.78451 -84.9439
rradius 59.4351 0 0
rwrist -11.9836 0 0
rhand -37.3088 5.4756 -1.71369
rfingers 7.12502 0 0
rthumb -10.3675 -24.1394 -1.67278
101
root 5.03948 17.3414 -2.75685 3.5775 1.01622 3.98439
lfemur 13.88 -0.647828 -27.5161
ltibia 8.7887 0 0
lfoot 8.41945 5.8229 -0.112088
ltoes -5.89433 0 0
rfemur -40.0268 2.3453 15.9365
rtibia 57.7053 0 0
rfoot -7.04383 -6.91756 0.255916
rtoes -6.31601 0 0
lowerback 3.23376 -3.31517 -4.71585
upperback -0.437522 -4.66037 0.779664
thorax -1.83792 -2.21208 3.95199
lowerneck -13.2853 -0.976478 -7.28177
upperneck 7.78277 -0.612877 5.56531
head 5.03584 -0.245255 2.7288
lclavicle 6.37696e-14 4.37326e-15 4.17587e-31
lhumerus -18.1275 -20.6804 87.2645
lradius 79.0558 0 0
lwrist 20.4663 0 0
lhand -26.965 -9.15237 -1.65963
lfingers 7.12502 0 0
lthumb -0.3857 20.5329 -1.59977
rclavicle 6.37696e-14 4.37326e-15 4.17587e-31
rhumerus -54.4573 8.76179 -84.8417
rradius 59.5114 0 0
rwrist -11.5936 0 0
rhand -37.4804 4.5058 -1.83562
rfingers 7.12502 0 0
rthumb -10.5321 -25.0831 -1.79383
102
root 5.04785 17.3759 -2.40705 3.66092 1.00614 4.00903
lfemur 15.0042 -0.885012 -27.6061
ltibia 8.01565 0 0
lfoot 8.24675 5.83213 -0.066753
ltoes -9.13994 0 0
rfemur -40.0632 2.88995 15.658
rtibia 54.7202 0 0
rfoot -7.44424 -6.37474 0.266692
rtoes -6.93862 0 0
lowerback 2.66551 -3.33912 -4.69495
upperback -0.251485 -4.64158 0.840035
thorax -1.30818 -2.23389 3.94179
lowerneck -13.4438 -0.951652 -7.05711
upperneck 7.79448 -0.570306 5.18908
head 5.07219 -0.24021 2.55193
lclavicle 5.8315e-16 3.47875e-16 -7.07859e-31
lhumerus -18.2084 -21.4874 87.3285
lradius 79.5663 0 0
lwrist 20.4678 0 0
lhand -27.3085 -7.1025 -1.92099
lfingers 7.12502 0 0
lthumb -0.7171 22.5801 -1.8502
rclavicle 5.8315e-16 3.47875e-16 -7.07859e-31
rhumerus -54.3624 8.66706 -84.6604
rradius 59.7043 0 0
rwrist -11.3667 0 0
rhand -37.6391 3.85295 -2.00908
rfingers 7.12502 0 0
rthumb -10.6838 -25.7023 -1.96612
103
root 5.05446 17.4129 -2.0602 3.75198 1.05845 4.14992
lfemur 16.159 -1.19461 -27.8408
ltibia 7.22595 0 0
lfoot 9.43895 5.32432 -0.0809994
ltoes -6.76151 0 0
rfemur -40.035 3.43993 15.2133
rtibia 51.6452 0 0
rfoot -7.80825 -5.91911 0.267297
rtoes -8.01493 0 0
lowerback 2.5631 -3.40541 -4.73694
upperback -0.385964 -4.7249 0.899009
thorax -1.36996 -2.27423 4.02026
lowerneck -13.5361 -0.869413 -6.97329
upperneck 8.18846 -0.449577 4.94272
head 5.20995 -0.197323 2.47698
lclavicle -3.6682e-15 -1.51573e-14 2.93612e-30
lhumerus -18.7329 -22.0905 87.5483
lradius 79.9925 0 0
lwrist 20.2445 0 0
lhand -26.7165 -7.69975 -1.80764
lfingers 7.12502 0 0
lthumb -0.1461 21.9965 -1.74398
rclavicle -3.6682e-15 -1.51573e-14 2.93612e-30
rhumerus -54.6322 8.68392 -84.4915
rradius 59.7736 0 0
rwrist -11.2473 0 0
rhand -37.6249 4.1726 -2.00036
rfingers 7.12502 0 0
rthumb -10.6702 -25.3859 -1.95722
104
root 5.06246 17.4349 -1.70625 3.81023 1.1882 4.50018
lfemur 17.4474 -1.53867 -28.3495
ltibia 6.4472 0 0
lfoot 10.0975 4.94015 -0.068649
ltoes -5.57519 0 0
rfemur -39.867 3.85874 14.4983
rtibia 48.4737 0 0
rfoot -7.98366 -5.40949 0.256449
rtoes -10.5348 0 0
lowerback 2.58008 -3.48753 -4.92896
upperback -0.524532 -4.84341 0.877119
thorax -1.50337 -2.32651 4.11965
lowerneck -13.7992 -0.784027 -6.9594
upperneck 8.63617 -0.325309 4.90051
head 5.40337 -0.140211 2.48735
lclavicle -2.00773e-14 -9.64107e-15 1.4669e-31
lhumerus -19.3921 -22.7425 87.8521
lradius 80.3574 0 0
lwrist 19.851 0 0
lhand -26.2942 -7.82789 -1.78821
lfingers 7.12502 0 0
lthumb 0.26125 21.8581 -1.72734
rclavicle -2.00773e-14 -9.64107e-15 1.4669e-31
rhumerus -54.8822 8.73309 -84.4206
rradius 59.8342 0 0
rwrist -11.0582 0 0
rhand -37.7553 4.4076 -1.90954
rfingers 7.12502 0 0
rthumb -10.7968 -25.1633 -1.86642
105
root 5.06988 17.453 -1.34985 3.91428 1.30491 4.6681
lfemur 18.6833 -1.84994 -28.676
ltibia 5.6768 0 0
lfoot 10.6321 4.7177 -0.0729812
ltoes -5.26234 0 0
rfemur -39.6011 4.36793 13.9416
rtibia 45.2167 0 0
rfoot -8.00611 -5.03457 0.243581
rtoes -11.5632 0 0
lowerback 2.45235 -3.55979 -4.90286
upperback -0.515323 -4.9296 0.834157
thorax -1.42068 -2.37416 4.06378
lowerneck -14.33 -0.718442 -6.67507
upperneck 8.91071 -0.251689 4.80009
head 5.58208 -0.0981109 2.41674
lclavicle 1.67414e-14 1.10822e-14 3.84743e-30
lhumerus -19.9079 -23.4527 88.0142
lradius 80.7087 0 0
lwrist 19.4501 0 0
lhand -26.2976 -8.42816 -1.71936
lfingers 7.12502 0 0
lthumb 0.258 21.2519 -1.66087
rclavicle 1.67414e-14 1.10822e-14 3.84743e-30
rhumerus -54.7962 8.64744 -84.4192
rradius 59.8643 0 0
rwrist -10.9277 0 0
rhand -37.5268 4.97365 -1.92322
rfingers 7.12502 0 0
rthumb -10.5766 -24.6097 -1.87909
106
root 5.07643 17.4772 -0.99855 4.0635 1.3322 4.46478
lfemur 19.7239 -2.05477 -28.6187
ltibia 4.87094 0 0
lfoot 11.1417 4.16012 -0.150349
ltoes -5.81728 0 0
rfemur -39.2871 5.10828 13.75
rtibia 41.927 0 0
rfoot -7.78307 -5.02323 0.241514
rtoes -12.0839 0 0
lowerback 2.2386 -3.58742 -4.56924
upperback -0.519523 -4.94325 0.933941
thorax -1.3236 -2.38683 3.95966
lowerneck -14.428 -0.68233 -6.45358
upperneck 8.75961 -0.206903 4.5939
head 5.54035 -0.0854014 2.30696
lclavicle 2.83424e-14 -1.02871e-14 7.87583e-31
lhumerus -20.6493 -24.2367 88.3725
lradius 81.1169 0 0
lwrist 19.2219 0 0
lhand -26.5907 -9.1632 -1.5858
lfingers 7.12502 0 0
lthumb -0.02465 20.5258 -1.53045
rclavicle 2.83424e-14 -1.02871e-14 7.87583e-31
rhumerus -54.5569 8.52591 -84.294
rradius 59.7589 0 0
rwrist -10.7359 0 0
rhand -37.2658 5.6253 -1.96199
rfingers 7.12502 0 0
rthumb -10.3246 -23.9649 -1.9171
107
root 5.08281 17.4878 -0.6526 4.22991 1.38708 4.43886
lfemur 20.7706 -2.29105 -28.7609
ltibia 3.92593 0 0
lfoot 11.4444 3.54487 -0.208949
ltoes -7.82769 0 0
rfemur -38.9793 5.82139 13.3415
rtibia 38.7203 0 0
rfoot -7.52867 -5.45177 0.200523
rtoes -13.1967 0 0
lowerback 1.94856 -3.60904 -4.35162
upperback -0.53015 -4.95296 0.971535
thorax -1.18823 -2.39646 3.84601
lowerneck -14.2399 -0.726145 -6.53826
upperneck 8.42376 -0.246816 4.59984
head 5.40287 -0.116229 2.31513
lclavicle -1.60954e-14 2.18664e-15 -7.69343e-31
lhumerus -21.4841 -24.9427 88.8292
lradius 81.3669 0 0
lwrist 18.8971 0 0
lhand -26.5644 -9.65438 -1.52297
lfingers 7.12502 0 0
lthumb 0.0006 20.0381 -1.46996
rclavicle -1.60954e-14 2.18664e-15 -7.69343e-31
rhumerus -54.2301 8.3297 -84.1802
rradius 59.4969 0 0
rwrist -10.5668 0 0
rhand -37.3333 6.37345 -1.95165
rfingers 7.12502 0 0
rthumb -10.3903 -23.223 -1.90562
108
root 5.08809 17.4818 -0.30315 4.21359 1.55474 4.63489
lfemur 20.4802 -2.57313 -29.3194
ltibia 6.28206 0 0
lfoot 9.76655 3.09859 -0.215531
ltoes -9.91069 0 0
rfemur -38.4338 6.44318 12.703
rtibia 35.7431 0 0
rfoot -7.66877 -6.14864 0.109148
rtoes -14.0313 0 0
lowerback 1.7296 -3.68936 -4.32478
upperback -0.409212 -5.04769 0.908353
thorax -0.943368 -2.45286 3.73193
lowerneck -14.2861 -0.750528 -6.7025
upperneck 8.22386 -0.249112 4.76791
head 5.3649 -0.124592 2.39991
lclavicle -2.87741e-14 2.28602e-14 5.30146e-31
lhumerus -22.071 -25.3695 89.0436
lradius 81.3851 0 0
lwrist 18.508 0 0
lhand -26.4177 -9.86221 -1.54719
lfingers 7.12502 0 0
lthumb 0.1421 19.8229 -1.49406
rclavicle -2.87741e-14 2.28602e-14 5.30146e-31
rhumerus -53.8597 8.19086 -84.2362
rradius 59.2985 0 0
rwrist -10.2667 0 0
rhand -37.5211 6.7708 -2.00072
rfingers 7.12502 0 0
rthumb -10.5713 -22.817 -1.95322
109
root 5.09313 17.4748 0.05115 4.04955 1.76203 4.95845
lfemur 21.3576 -2.88735 -29.988
ltibia 6.7164 0 0
lfoot 10.9433 2.80889 -0.180788
ltoes -6.42446 0 0
rfemur -37.7134 6.97012 11.9777
rtibia 33.1555 0 0
rfoot -8.19072 -6.85047 0.0158337
rtoes -13.7049 0 0
lowerback 2.50631 -3.78369 -4.7839
upperback -0.851581 -5.24857 1.16823
thorax -1.78254 -2.50219 4.3412
lowerneck -14.0914 -0.672051 -6.90991
upperneck 8.46593 -0.0630425 4.42328
head 5.41324 -0.0844145 2.34511
lclavicle 4.20304e-14 8.05078e-15 1.50668e-30
lhumerus -23.6712 -25.3573 90.1871
lradius 81.3136 0 0
lwrist 18.0934 0 0
lhand -26.2382 -9.71178 -1.55954
lfingers 7.12502 0 0
lthumb 0.3153 19.9776 -1.50689
rclavicle 4.20304e-14 8.05078e-15 1.50668e-30
rhumerus -54.5102 8.86477 -84.068
rradius 59.4937 0 0
rwrist -10.1766 0 0
rhand -37.6949 6.50275 -2.04618
rfingers 7.12502 0 0
rthumb -10.7387 -23.0734 -1.99791
110
root 5.09873 17.4639 0.40005 3.91595 1.93577 5.23581
lfemur 20.9298 -3.19686 -30.5633
ltibia 9.51275 0 0
lfoot 10.9068 2.72424 -0.138726
ltoes -5.4565 0 0
rfemur -37.0947 7.45523 11.3484
rtibia 30.9877 0 0
rfoot -8.79991 -7.63356 -0.0507585
rtoes -13.8383 0 0
lowerback 2.03449 -3.8296 -4.37492
upperback -0.458658 -5.25661 0.671743
thorax -1.16471 -2.54758 3.55342
lowerneck -13.9341 -0.658637 -6.55418
upperneck 7.84583 -0.158004 4.64603
head 5.19866 -0.0823458 2.32755
lclavicle -2.09221e-14 -7.9514e-16 7.55191e-31
lhumerus -24.1056 -26.3249 89.8265
lradius 81.2475 0 0
lwrist 18.2072 0 0
lhand -25.8704 -8.94992 -1.65207
lfingers 7.12502 0 0
lthumb 0.66995 20.7344 -1.59811
rclavicle -2.09221e-14 -7.9514e-16 7.55191e-31
rhumerus -53.7103 8.21296 -84.4574
rradius 59.4247 0 0
rwrist -10.3699 0 0
rhand -37.5863 6.98755 -1.98275
rfingers 7.12502 0 0
rthumb -10.6345 -22.6038 -1.93478
